<svg width="1203" height="1129" viewBox="0 0 1203 1129" fill="none" xmlns="http://www.w3.org/2000/svg">
<path fill-rule="evenodd" clip-rule="evenodd" d="M611.835 702.916C665.577 711.186 706.918 773.208 706.918 843.499C706.918 872.443 702.783 893.117 694.515 913.791C711.052 930.33 723.454 951.004 723.454 975.813C723.454 996.487 711.052 1021.3 690.381 1033.7C682.113 1050.24 698.649 1058.51 686.247 1075.05C669.711 1091.59 607.701 1095.72 599.433 1128.8C595.299 1095.72 533.289 1091.59 516.753 1075.05C504.351 1058.51 520.887 1050.24 512.619 1033.7C491.948 1021.3 479.546 996.487 479.546 975.813C479.546 951.004 487.814 930.33 508.485 913.791C500.216 893.117 496.082 872.443 496.082 843.499C496.082 769.073 537.423 711.186 591.165 702.916C574.629 769.073 566.361 831.095 562.227 893.117C570.495 835.23 582.897 777.342 599.433 727.725C599.433 806.286 607.701 880.712 607.701 963.408C607.701 880.712 611.835 802.151 607.701 719.455C624.237 769.073 636.639 818.69 640.773 876.578C640.773 822.825 632.505 764.938 611.835 702.916Z" fill="#ED80E9"/>
<path fill-rule="evenodd" clip-rule="evenodd" d="M392.732 326.649C392.732 202.605 463.01 86.8308 599.433 0C748.258 86.8308 814.402 206.74 810.268 326.649C744.124 355.593 702.783 388.671 669.711 430.019C682.113 388.671 690.381 347.323 698.649 305.975C673.845 376.267 649.041 446.558 611.835 512.715C620.103 409.345 611.835 314.245 615.969 206.74C607.701 314.245 599.433 405.21 595.299 512.715C566.361 450.693 549.825 392.806 545.691 314.245C541.557 359.727 545.691 405.21 553.959 458.963C520.887 401.075 471.278 359.727 392.732 326.649Z" fill="#ED80E9"/>
<path fill-rule="evenodd" clip-rule="evenodd" d="M450.608 979.947C359.66 1046.1 235.639 1054.37 107.484 979.947C115.752 860.038 161.227 781.477 227.371 731.859C285.247 756.668 343.124 764.938 405.134 760.803C376.196 769.073 347.258 777.342 322.453 785.612C372.062 777.342 421.67 769.073 475.412 769.073C409.268 798.016 355.526 835.229 293.515 868.308C359.66 839.364 417.536 810.421 479.546 777.342C454.742 814.555 425.804 843.499 380.33 876.577C413.402 860.038 442.34 839.364 471.278 806.286C446.474 880.712 450.608 913.791 450.608 979.947Z" fill="#ED80E9"/>
<path fill-rule="evenodd" clip-rule="evenodd" d="M516.753 731.859C235.639 806.286 0 636.759 0 351.458C202.567 264.627 487.814 301.84 574.629 529.254C549.825 529.254 520.887 549.928 504.35 578.872C442.34 508.58 376.196 458.963 310.052 413.48C367.928 467.232 429.938 525.119 479.546 591.276C376.196 537.524 281.113 504.445 177.763 454.828C276.979 508.58 372.062 562.333 475.412 611.95C401 611.95 330.722 595.411 252.175 570.602C318.32 607.815 392.732 624.355 483.68 628.489C479.546 661.568 487.814 698.781 516.753 731.859Z" fill="#ED80E9"/>
<path fill-rule="evenodd" clip-rule="evenodd" d="M752.392 979.947C843.34 1046.1 967.361 1054.37 1095.52 979.947C1087.25 860.038 1041.77 781.477 975.629 731.859C917.753 756.668 859.876 764.938 797.866 760.803C826.804 769.073 855.742 777.342 880.546 785.612C830.938 777.342 781.33 769.073 727.588 769.073C793.732 798.016 847.474 835.229 909.485 868.308C843.34 839.364 785.464 810.421 723.454 777.342C748.258 814.555 777.196 843.499 822.67 876.577C789.598 860.038 760.66 839.364 731.722 806.286C756.526 880.712 752.392 913.791 752.392 979.947Z" fill="#ED80E9"/>
<path fill-rule="evenodd" clip-rule="evenodd" d="M686.247 731.859C967.361 806.286 1203 636.759 1203 351.458C1000.43 264.627 715.186 301.84 628.371 529.254C653.175 529.254 682.113 549.928 698.649 578.872C760.66 508.58 826.804 458.963 892.948 413.48C835.072 467.232 773.062 525.119 723.454 591.276C826.804 537.524 921.887 504.445 1025.24 454.828C926.021 508.58 830.938 562.333 727.588 611.95C802 611.95 872.278 595.411 950.825 570.602C884.68 607.815 810.268 624.355 719.32 628.489C723.454 661.568 715.186 698.781 686.247 731.859Z" fill="#ED80E9"/>
<path fill-rule="evenodd" clip-rule="evenodd" d="M533.289 711.185C541.557 698.781 529.155 694.646 582.897 640.894C582.897 640.894 570.495 595.411 582.897 554.063C537.423 558.198 471.278 636.759 533.289 711.185Z" fill="#ED80E9"/>
<path fill-rule="evenodd" clip-rule="evenodd" d="M669.711 711.185C661.443 698.781 673.845 694.646 620.103 640.894C620.103 640.894 632.505 595.411 620.103 554.063C665.577 558.198 727.588 636.759 669.711 711.185Z" fill="#ED80E9"/>
</svg>
